<?xml version="1.0" encoding="utf-8"?>
<!-- Generator: Adobe Illustrator 27.2.0, SVG Export Plug-In . SVG Version: 6.00 Build 0)  -->
<svg version="1.1" xmlns="http://www.w3.org/2000/svg" xmlns:xlink="http://www.w3.org/1999/xlink" x="0px" y="0px"
	 viewBox="0 0 351 68.6" style="enable-background:new 0 0 351 68.6;" xml:space="preserve">
<style type="text/css">
	.st0{fill:#FFFFFF;}
	.st1{fill:none;stroke:#FFFFFF;stroke-width:5;stroke-linecap:round;stroke-miterlimit:10;}
	.st2{fill:#F37D3A;}
	.st3{fill:#1B75BB;}
</style>
<g id="Layer_1">
	<g>
		<g>
			<path class="st0" d="M132,17c-5.7,0-12.6,2.7-12.6,15.5V36c0,12.8,6.8,15.5,12.6,15.5c5.7,0,12.6-2.7,12.6-15.5v-3.5
				C144.6,19.7,137.8,17,132,17z M138.4,36c0,8.6-3.4,9.7-6.4,9.7s-6.4-1.1-6.4-9.7v-3.5c0-8.6,3.4-9.7,6.4-9.7s6.4,1.1,6.4,9.7V36z
				"/>
			<path class="st0" d="M213.5,17.4c-1.7,0-3.1,1.4-3.1,3.1v18l-11.2-19.6c-0.5-0.9-1.5-1.4-2.5-1.4H196c-1.7,0-3.1,1.4-3.1,3.1
				v27.7c0,1.7,1.4,3.1,3.1,3.1s3.1-1.4,3.1-3.1V30.4l11.3,19.9c0.3,0.6,1,1,1.7,1h1.4c1.7,0,3.1-1.4,3.1-3.1V20.5
				C216.5,18.8,215.2,17.4,213.5,17.4z"/>
			<path class="st0" d="M232.8,17.4c-1.7,0-3.1,1.4-3.1,3.1v27.7c0,1.7,1.4,3.1,3.1,3.1s3.1-1.4,3.1-3.1V20.5
				C235.9,18.8,234.5,17.4,232.8,17.4z"/>
			<path class="st0" d="M311.6,17.4h-1.3c-1.1,0-2.1,0.6-2.6,1.6l-8,16.6l-8-16.6c-0.5-1-1.5-1.6-2.6-1.6h-1.3
				c-1.4,0-2.6,1.2-2.6,2.6v28.1c0,1.7,1.4,3.1,3.1,3.1s3.1-1.4,3.1-3.1v-16l4.7,10.2c0.6,1.4,2,2.2,3.5,2.2c1.5,0,2.9-0.9,3.5-2.2
				l4.8-10.4v16.2c0,1.7,1.4,3.1,3.1,3.1s3.1-1.4,3.1-3.1V20C314.2,18.6,313,17.4,311.6,17.4z"/>
			<path class="st0" d="M105.6,17.4H88.8c-1.6,0-2.9,1.3-2.9,2.9c0,1.6,1.3,2.9,2.9,2.9h16.7c1.6,0,2.9-1.3,2.9-2.9
				C108.5,18.7,107.2,17.4,105.6,17.4z"/>
			<path class="st0" d="M104.2,31.6l-14.7,0c-2,0-3.6,1.6-3.6,3.6v13.1c0,1.6,1.3,2.9,2.9,2.9h0.4c1.6,0,2.9-1.3,2.9-2.9V37.4h12.1
				c1.6,0,2.9-1.3,2.9-2.9S105.8,31.6,104.2,31.6z"/>
			<path class="st0" d="M259.8,34.5c0,1.6,1.3,2.9,2.9,2.9h4.5c-0.6,6-2.4,8.4-6.5,8.4c-3,0-6.4-1.1-6.4-9.7v-3.5
				c0-8.6,3.4-9.7,6.4-9.7c3.3,0,5,1,6,4.1c0.4,1.2,1.5,2.1,2.8,2.1h0.3c0.9,0,1.8-0.4,2.3-1.2c0.5-0.7,0.7-1.6,0.5-2.5
				c-1.6-5.7-5.6-8.3-11.8-8.3c-5.7,0-12.6,2.7-12.6,15.5V36c0,12.8,6.8,15.5,12.6,15.5c8.6,0,12.7-5.6,12.7-17v-2.9h-10.8
				C261.1,31.6,259.8,32.9,259.8,34.5z"/>
			<path class="st0" d="M350.8,47.1l-9.5-27.3c-0.5-1.5-1.9-2.5-3.5-2.5s-3,1-3.5,2.5l-9.5,27.3c-0.3,0.9-0.2,2,0.4,2.8
				c0.6,0.8,1.5,1.3,2.5,1.3c1.3,0,2.5-0.8,2.9-2.1l7.2-21.2l7.2,21.2c0.4,1.2,1.6,2.1,2.9,2.1c1,0,1.9-0.5,2.5-1.3
				C351,49.1,351.2,48.1,350.8,47.1z"/>
			<path class="st0" d="M166.7,34.5c0,1.6,1.3,2.9,2.9,2.9h4.5c-0.6,6-2.4,8.4-6.5,8.4c-3,0-6.4-1.1-6.4-9.7v-3.5
				c0-8.6,3.4-9.7,6.4-9.7c3.3,0,5,1,6,4.1c0.4,1.2,1.5,2.1,2.8,2.1h0.3c0.9,0,1.8-0.4,2.3-1.2c0.5-0.7,0.7-1.6,0.5-2.5
				c-1.6-5.7-5.6-8.3-11.8-8.3c-5.7,0-12.6,2.7-12.6,15.5V36c0,12.8,6.8,15.5,12.6,15.5c8.6,0,12.7-5.6,12.7-17v-2.9h-10.8
				C168,31.6,166.7,32.9,166.7,34.5z"/>
		</g>
		<g>
			<path class="st1" d="M36.8,14.1"/>
			<g>
				<path class="st2" d="M21.1,58.6l-12-9.4c-3.2-2.5-5-6.3-5-10.4V13.4c0-5.1,4.2-9.3,9.3-9.3h22.3l12.2-4C48.1,0,48.4,0,48.6,0
					c0,0-0.1,0-0.1,0H13.4C6,0,0,6,0,13.4v25.4c0,5.3,2.4,10.3,6.6,13.6l12,9.4c0.4,0.3,0.8,0.4,1.3,0.4c0.6,0,1.2-0.3,1.6-0.8
					C22.2,60.6,22,59.3,21.1,58.6z"/>
			</g>
			<path class="st3" d="M53.9,6.3c-1.1,0-2.1,0.9-2.1,2.1v30.3c0,4.1-1.8,7.9-5,10.4L30.1,62.3V45c0-1.5,1-2.9,2.4-3.3l7.4-2.4
				c3.4-1.1,5.7-4.3,5.7-7.8v-4.1c0-0.7-0.3-1.3-0.9-1.7c-0.5-0.4-1.2-0.5-1.9-0.3l-12.7,4.4c0.1-1.4,1.1-2.6,2.4-3l7.3-2.3
				c3.4-1.1,5.7-4.2,5.7-7.8v-4.6c0-0.7-0.3-1.3-0.9-1.7c-0.5-0.4-1.2-0.5-1.9-0.3l-16.9,5.8c-4.8,1.6-8.1,6.2-8.1,11.3v18.6
				l-1.6-1.5c-1.2-1-1.8-2.5-1.8-4.1v-17c0-4.5,2.9-8.5,7.1-9.9L49.2,4c1.1-0.4,1.7-1.5,1.3-2.6c-0.4-1.1-1.5-1.7-2.6-1.3L20.2,9.3
				c-6,2-10,7.5-10,13.8v17c0,2.7,1.2,5.4,3.2,7.2l5.1,4.6c0.6,0.5,1.5,0.7,2.2,0.4c0.7-0.3,1.2-1.1,1.2-1.9V27.1
				c0-3.3,2.1-6.3,5.3-7.4l14.2-4.9v1.7c0,1.8-1.1,3.4-2.9,3.9l-7.3,2.3c-3.2,1-5.3,3.9-5.3,7.3v2.6c0,0.7,0.3,1.3,0.9,1.7
				c0.5,0.4,1.2,0.5,1.9,0.3l12.7-4.4v1.2c0,1.8-1.1,3.3-2.8,3.9l-7.4,2.4c-3.1,1-5.2,3.9-5.2,7.3v21.6c0,0,0,0,0,0.1
				c0,0.1,0,0.1,0,0.2c0,0.1,0,0.1,0,0.2c0,0.1,0,0.1,0.1,0.2c0,0.1,0,0.1,0.1,0.2c0,0.1,0.1,0.1,0.1,0.2c0,0.1,0.1,0.1,0.1,0.2
				c0,0,0,0,0,0.1c0,0,0,0,0.1,0.1c0.1,0.1,0.1,0.1,0.2,0.2c0,0,0.1,0.1,0.1,0.1c0.1,0.1,0.2,0.1,0.2,0.1c0,0,0.1,0.1,0.1,0.1
				c0.1,0,0.2,0.1,0.3,0.1c0,0,0.1,0,0.1,0c0.1,0,0.3,0,0.4,0c0,0,0,0,0,0c0,0,0,0,0,0c0.1,0,0.3,0,0.4,0c0,0,0.1,0,0.1,0
				c0.1,0,0.2,0,0.2-0.1c0,0,0.1,0,0.1-0.1c0.1,0,0.1-0.1,0.2-0.1c0,0,0.1-0.1,0.1-0.1c0,0,0,0,0.1,0l20.1-15.8
				c4.2-3.3,6.6-8.3,6.6-13.7V8.4C56,7.2,55,6.3,53.9,6.3z"/>
		</g>
	</g>
</g>
<g id="Layer_2">
</g>
</svg>
